<svg xmlns="http://www.w3.org/2000/svg" xmlns:xlink="http://www.w3.org/1999/xlink" viewBox="0 0 1873.03 1265.56"><defs><style>.cls-1{opacity:0.51;}.cls-10,.cls-11,.cls-12,.cls-14,.cls-15,.cls-17,.cls-18,.cls-19,.cls-2,.cls-20,.cls-21,.cls-22,.cls-23,.cls-24,.cls-25,.cls-26,.cls-28,.cls-29,.cls-3,.cls-30,.cls-31,.cls-32,.cls-33,.cls-34,.cls-35,.cls-37,.cls-38,.cls-39,.cls-4,.cls-40,.cls-41,.cls-42,.cls-43,.cls-44,.cls-46,.cls-47,.cls-48,.cls-49,.cls-5,.cls-50,.cls-51,.cls-52,.cls-6,.cls-7,.cls-8{opacity:0.3;}.cls-2{fill:url(#linear-gradient);}.cls-3{fill:#fff;}.cls-4{fill:url(#linear-gradient-2);}.cls-5{fill:url(#linear-gradient-3);}.cls-6{fill:url(#linear-gradient-4);}.cls-7{fill:url(#linear-gradient-5);}.cls-8{fill:url(#linear-gradient-6);}.cls-9{opacity:0.68;fill:url(#linear-gradient-7);}.cls-10{fill:url(#linear-gradient-8);}.cls-11{fill:url(#linear-gradient-9);}.cls-12{fill:url(#linear-gradient-10);}.cls-13{opacity:0.46;fill:url(#linear-gradient-11);}.cls-14{fill:url(#linear-gradient-12);}.cls-15{fill:url(#linear-gradient-13);}.cls-16{opacity:0.41;fill:url(#linear-gradient-14);}.cls-17{fill:url(#linear-gradient-15);}.cls-18{fill:url(#linear-gradient-16);}.cls-19{fill:url(#linear-gradient-17);}.cls-20{fill:url(#linear-gradient-18);}.cls-21{fill:url(#linear-gradient-19);}.cls-22{fill:url(#linear-gradient-20);}.cls-23{fill:url(#linear-gradient-21);}.cls-24{fill:url(#linear-gradient-22);}.cls-25{fill:url(#linear-gradient-23);}.cls-26{fill:url(#linear-gradient-24);}.cls-27{opacity:0.62;fill:url(#linear-gradient-25);}.cls-28{fill:url(#linear-gradient-26);}.cls-29{fill:url(#linear-gradient-27);}.cls-30{fill:url(#linear-gradient-28);}.cls-31{fill:url(#linear-gradient-29);}.cls-32{fill:url(#linear-gradient-30);}.cls-33{fill:url(#linear-gradient-31);}.cls-34{fill:url(#linear-gradient-32);}.cls-35{fill:url(#linear-gradient-33);}.cls-36{opacity:0.44;fill:url(#linear-gradient-34);}.cls-37{fill:url(#linear-gradient-35);}.cls-38{fill:url(#linear-gradient-36);}.cls-39{fill:url(#linear-gradient-37);}.cls-40{fill:url(#linear-gradient-38);}.cls-41{fill:url(#linear-gradient-39);}.cls-42{fill:url(#linear-gradient-40);}.cls-43{fill:url(#linear-gradient-41);}.cls-44{fill:url(#linear-gradient-42);}.cls-45{opacity:0.53;fill:url(#linear-gradient-43);}.cls-46{fill:url(#linear-gradient-44);}.cls-47{fill:url(#linear-gradient-45);}.cls-48{fill:url(#linear-gradient-46);}.cls-49{fill:url(#linear-gradient-47);}.cls-50{fill:url(#linear-gradient-48);}.cls-51{fill:url(#linear-gradient-49);}.cls-52{fill:url(#linear-gradient-50);}</style><linearGradient id="linear-gradient" x1="-127.77" y1="226.19" x2="51.6" y2="46.81" gradientUnits="userSpaceOnUse"><stop offset="0" stop-color="#fcfcfc"/><stop offset="0.4" stop-color="#f6f6f6"/><stop offset="0.94" stop-color="#e5e4e5"/><stop offset="1" stop-color="#e3e2e3"/></linearGradient><linearGradient id="linear-gradient-2" x1="33.72" y1="94.94" x2="213.09" y2="-84.43" xlink:href="#linear-gradient"/><linearGradient id="linear-gradient-3" x1="203.08" y1="185.41" x2="382.45" y2="6.04" xlink:href="#linear-gradient"/><linearGradient id="linear-gradient-4" x1="402.64" y1="92.25" x2="582.02" y2="-87.13" xlink:href="#linear-gradient"/><linearGradient id="linear-gradient-5" x1="574.7" y1="185.41" x2="754.08" y2="6.04" xlink:href="#linear-gradient"/><linearGradient id="linear-gradient-6" x1="774.27" y1="92.25" x2="953.64" y2="-87.13" xlink:href="#linear-gradient"/><linearGradient id="linear-gradient-7" x1="946.33" y1="185.41" x2="1125.7" y2="6.04" xlink:href="#linear-gradient"/><linearGradient id="linear-gradient-8" x1="-127.77" y1="440.88" x2="51.61" y2="261.5" xlink:href="#linear-gradient"/><linearGradient id="linear-gradient-9" x1="-127.77" y1="654.83" x2="51.61" y2="475.46" xlink:href="#linear-gradient"/><linearGradient id="linear-gradient-10" x1="16.78" y1="292.7" x2="196.15" y2="113.32" xlink:href="#linear-gradient"/><linearGradient id="linear-gradient-11" x1="16.78" y1="506.65" x2="196.15" y2="327.28" xlink:href="#linear-gradient"/><linearGradient id="linear-gradient-12" x1="202.59" y1="399.61" x2="381.96" y2="220.24" xlink:href="#linear-gradient"/><linearGradient id="linear-gradient-13" x1="202.59" y1="613.57" x2="381.96" y2="434.19" xlink:href="#linear-gradient"/><linearGradient id="linear-gradient-14" x1="388.4" y1="292.7" x2="567.78" y2="113.32" xlink:href="#linear-gradient"/><linearGradient id="linear-gradient-15" x1="388.4" y1="506.65" x2="567.78" y2="327.28" xlink:href="#linear-gradient"/><linearGradient id="linear-gradient-16" x1="574.21" y1="399.61" x2="753.59" y2="220.24" xlink:href="#linear-gradient"/><linearGradient id="linear-gradient-17" x1="574.21" y1="613.57" x2="753.59" y2="434.19" xlink:href="#linear-gradient"/><linearGradient id="linear-gradient-18" x1="760.03" y1="292.7" x2="939.4" y2="113.32" xlink:href="#linear-gradient"/><linearGradient id="linear-gradient-19" x1="1689.09" y1="613.57" x2="1868.46" y2="434.19" xlink:href="#linear-gradient"/><linearGradient id="linear-gradient-20" x1="1830.71" y1="462.46" x2="2010.09" y2="283.09" xlink:href="#linear-gradient"/><linearGradient id="linear-gradient-21" x1="-127.77" y1="869.52" x2="51.61" y2="690.15" xlink:href="#linear-gradient"/><linearGradient id="linear-gradient-22" x1="-127.77" y1="1083.48" x2="51.61" y2="904.1" xlink:href="#linear-gradient"/><linearGradient id="linear-gradient-23" x1="16.78" y1="721.34" x2="196.15" y2="541.97" xlink:href="#linear-gradient"/><linearGradient id="linear-gradient-24" x1="16.78" y1="935.3" x2="196.15" y2="755.92" xlink:href="#linear-gradient"/><linearGradient id="linear-gradient-25" x1="202.59" y1="828.26" x2="381.96" y2="648.88" xlink:href="#linear-gradient"/><linearGradient id="linear-gradient-26" x1="202.59" y1="1042.21" x2="381.96" y2="862.84" xlink:href="#linear-gradient"/><linearGradient id="linear-gradient-27" x1="388.4" y1="721.34" x2="567.78" y2="541.97" xlink:href="#linear-gradient"/><linearGradient id="linear-gradient-28" x1="388.4" y1="935.3" x2="567.78" y2="755.92" xlink:href="#linear-gradient"/><linearGradient id="linear-gradient-29" x1="574.21" y1="828.26" x2="753.59" y2="648.88" xlink:href="#linear-gradient"/><linearGradient id="linear-gradient-30" x1="1317.46" y1="1042.21" x2="1496.84" y2="862.84" xlink:href="#linear-gradient"/><linearGradient id="linear-gradient-31" x1="1503.28" y1="721.34" x2="1682.65" y2="541.97" xlink:href="#linear-gradient"/><linearGradient id="linear-gradient-32" x1="1503.28" y1="935.3" x2="1682.65" y2="755.92" xlink:href="#linear-gradient"/><linearGradient id="linear-gradient-33" x1="1689.09" y1="828.26" x2="1868.46" y2="648.88" xlink:href="#linear-gradient"/><linearGradient id="linear-gradient-34" x1="1689.09" y1="1042.21" x2="1868.46" y2="862.84" xlink:href="#linear-gradient"/><linearGradient id="linear-gradient-35" x1="1830.71" y1="677.16" x2="2010.09" y2="497.78" xlink:href="#linear-gradient"/><linearGradient id="linear-gradient-36" x1="1830.71" y1="891.11" x2="2010.09" y2="711.74" xlink:href="#linear-gradient"/><linearGradient id="linear-gradient-37" x1="-127.77" y1="1298.17" x2="51.61" y2="1118.79" xlink:href="#linear-gradient"/><linearGradient id="linear-gradient-38" x1="16.78" y1="1149.99" x2="196.15" y2="970.62" xlink:href="#linear-gradient"/><linearGradient id="linear-gradient-39" x1="1.21" y1="1348.37" x2="180.58" y2="1169" xlink:href="#linear-gradient"/><linearGradient id="linear-gradient-40" x1="201.76" y1="1256.07" x2="381.13" y2="1076.7" xlink:href="#linear-gradient"/><linearGradient id="linear-gradient-41" x1="388.4" y1="1149.99" x2="567.78" y2="970.62" xlink:href="#linear-gradient"/><linearGradient id="linear-gradient-42" x1="945.01" y1="1256.07" x2="1124.38" y2="1076.7" xlink:href="#linear-gradient"/><linearGradient id="linear-gradient-43" x1="1131.65" y1="1149.99" x2="1311.03" y2="970.62" xlink:href="#linear-gradient"/><linearGradient id="linear-gradient-44" x1="1116.08" y1="1348.37" x2="1295.46" y2="1169" xlink:href="#linear-gradient"/><linearGradient id="linear-gradient-45" x1="1316.63" y1="1256.07" x2="1496.01" y2="1076.7" xlink:href="#linear-gradient"/><linearGradient id="linear-gradient-46" x1="1503.28" y1="1149.99" x2="1682.65" y2="970.62" xlink:href="#linear-gradient"/><linearGradient id="linear-gradient-47" x1="1487.7" y1="1348.37" x2="1667.08" y2="1169" xlink:href="#linear-gradient"/><linearGradient id="linear-gradient-48" x1="1688.26" y1="1256.07" x2="1867.63" y2="1076.7" xlink:href="#linear-gradient"/><linearGradient id="linear-gradient-49" x1="1830.71" y1="1105.8" x2="2010.09" y2="926.43" xlink:href="#linear-gradient"/><linearGradient id="linear-gradient-50" x1="1814.49" y1="1303.53" x2="1993.86" y2="1124.16" xlink:href="#linear-gradient"/></defs><title>Recurso 24a</title><g id="Capa_2" data-name="Capa 2"><g id="Capa_3" data-name="Capa 3"><g class="cls-1"><polygon class="cls-2" points="0 35.27 0 161.56 36.46 98.42 0 35.27"/><path class="cls-3" d="M3,46.28l30.1,52.14L3,150.55V46.28M0,35.27V161.56L36.46,98.42,0,35.27Z"/><polygon class="cls-4" points="0 0 0 18.7 43.79 94.55 162.78 94.55 217.36 0 0 0"/><path class="cls-3" d="M212.25,3,161.07,91.6H45.49L3,17.91V3h209.3M217.36,0H0V18.7L43.79,94.54h119L217.36,0Z"/><polygon class="cls-5" points="226.93 0 170.11 98.42 229.6 201.46 348.59 201.46 408.08 98.42 351.26 0 226.93 0"/><path class="cls-3" d="M349.56,3l55.12,95.47L346.89,198.51H231.31L173.52,98.42,228.63,3H349.56M351.26,0H226.93L170.11,98.42l59.49,103h119l59.49-103L351.26,0Z"/><polygon class="cls-6" points="360.83 0 415.42 94.55 534.4 94.55 588.99 0 360.83 0"/><path class="cls-3" d="M583.88,3,532.7,91.6H417.12L365.94,3H583.88M589,0H360.83l54.59,94.54h119L589,0Z"/><polygon class="cls-7" points="598.55 0 541.73 98.42 601.23 201.46 720.21 201.46 779.71 98.42 722.89 0 598.55 0"/><path class="cls-3" d="M721.18,3,776.3,98.42,718.51,198.51H602.93L545.14,98.42,600.26,3H721.18M722.89,0H598.55L541.73,98.42l59.5,103h119l59.5-103L722.89,0Z"/><polygon class="cls-8" points="732.45 0 787.04 94.55 906.02 94.55 960.61 0 732.45 0"/><path class="cls-3" d="M955.5,3,904.32,91.6H788.74L737.56,3H955.5M960.61,0H732.45L787,94.54H906L960.61,0Z"/><polygon class="cls-9" points="970.18 0 913.36 98.42 972.85 201.46 1091.84 201.46 1151.33 98.42 1094.51 0 970.18 0"/><path class="cls-3" d="M1092.81,3l55.12,95.47-57.79,100.09H974.56L916.76,98.42,971.88,3h120.93m1.7-2.95H970.18L913.36,98.42l59.49,103h119l59.49-103L1094.51,0Z"/><polygon class="cls-10" points="0 249.96 0 376.25 36.46 313.11 0 249.96"/><path class="cls-3" d="M3,261l30.1,52.14L3,365.25V261M0,250V376.25l36.46-63.14L0,250Z"/><polygon class="cls-11" points="0 463.92 0 590.21 36.46 527.06 0 463.92"/><path class="cls-3" d="M3,474.92l30.1,52.14L3,579.2V474.92M0,463.92V590.21l36.46-63.15L0,463.92Z"/><polygon class="cls-12" points="162.78 103.15 43.79 103.15 0 178.99 0 233.39 43.79 309.24 162.78 309.24 222.27 206.19 162.78 103.15"/><path class="cls-3" d="M161.07,106.1l57.79,100.09-57.79,100.1H45.49L3,232.6V179.78L45.49,106.1H161.07m1.71-2.95h-119L0,179v54.4l43.79,75.85h119l59.49-103-59.49-103Z"/><polygon class="cls-13" points="162.78 317.1 43.79 317.1 0 392.95 0 447.34 43.79 523.19 162.78 523.19 222.27 420.15 162.78 317.1"/><path class="cls-3" d="M161.07,320.05l57.79,100.1L161.07,520.24H45.49L3,446.55V393.74l42.54-73.69H161.07m1.71-2.95h-119L0,393v54.39l43.79,75.85h119l59.49-103-59.49-103Z"/><polygon class="cls-14" points="348.59 210.06 229.6 210.06 170.11 313.11 229.6 416.15 348.59 416.15 408.08 313.11 348.59 210.06"/><path class="cls-3" d="M346.89,213l57.79,100.1L346.89,413.2H231.31L173.52,313.11,231.31,213H346.89m1.7-2.95h-119L170.11,313.11l59.49,103h119l59.49-103-59.49-103Z"/><polygon class="cls-15" points="348.59 424.02 229.6 424.02 170.11 527.06 229.6 630.11 348.59 630.11 408.08 527.06 348.59 424.02"/><path class="cls-3" d="M346.89,427l57.79,100.09-57.79,100.1H231.31l-57.79-100.1L231.31,427H346.89m1.7-3h-119l-59.49,103L229.6,630.11h119l59.49-103.05L348.59,424Z"/><polygon class="cls-16" points="534.4 103.15 415.42 103.15 355.92 206.19 415.42 309.24 534.4 309.24 593.89 206.19 534.4 103.15"/><path class="cls-3" d="M532.7,106.1l57.79,100.09L532.7,306.29H417.12l-57.79-100.1L417.12,106.1H532.7m1.7-2.95h-119l-59.49,103,59.49,103.05h119l59.49-103-59.49-103Z"/><polygon class="cls-17" points="534.4 317.1 415.42 317.1 355.92 420.15 415.42 523.19 534.4 523.19 593.89 420.15 534.4 317.1"/><path class="cls-3" d="M532.7,320.05l57.79,100.1L532.7,520.24H417.12L359.33,420.15l57.79-100.1H532.7m1.7-2.95h-119l-59.49,103,59.49,103h119l59.49-103-59.49-103Z"/><polygon class="cls-18" points="720.21 210.06 601.23 210.06 541.73 313.11 601.23 416.15 720.21 416.15 779.71 313.11 720.21 210.06"/><path class="cls-3" d="M718.51,213l57.79,100.1L718.51,413.2H602.93L545.14,313.11,602.93,213H718.51m1.7-2.95h-119l-59.5,103.05,59.5,103h119l59.5-103-59.5-103Z"/><polygon class="cls-19" points="720.21 424.02 601.23 424.02 541.73 527.06 601.23 630.11 720.21 630.11 779.71 527.06 720.21 424.02"/><path class="cls-3" d="M718.51,427,776.3,527.06l-57.79,100.1H602.93l-57.79-100.1L602.93,427H718.51m1.7-3h-119l-59.5,103,59.5,103.05h119l59.5-103.05-59.5-103Z"/><polygon class="cls-20" points="906.03 103.15 787.04 103.15 727.55 206.19 787.04 309.24 906.03 309.24 965.52 206.19 906.03 103.15"/><path class="cls-3" d="M904.32,106.1l57.79,100.09-57.79,100.1H788.74L731,206.19,788.74,106.1H904.32m1.71-2.95H787l-59.49,103L787,309.24H906l59.49-103L906,103.15Z"/><polygon class="cls-21" points="1873.03 489.74 1835.09 424.02 1716.1 424.02 1656.61 527.06 1716.1 630.11 1835.09 630.11 1873.03 564.38 1873.03 489.74"/><path class="cls-3" d="M1833.38,427l36.7,63.56V563.6l-36.7,63.56H1717.8L1660,527.06,1717.8,427h115.58m1.71-3h-119l-59.49,103,59.49,103.05h119L1873,564.39V489.74L1835.09,424Z"/><polygon class="cls-22" points="1873.03 367.13 1842.42 420.15 1873.03 473.17 1873.03 367.13"/><path class="cls-3" d="M1870.08,378.13v84l-24.25-42,24.25-42m3-11-30.61,53,30.61,53v-106Z"/><polygon class="cls-23" points="0 678.61 0 804.9 36.46 741.75 0 678.61"/><path class="cls-3" d="M3,689.62l30.1,52.13L3,793.89V689.62M0,678.61V804.9l36.46-63.15L0,678.61Z"/><polygon class="cls-24" points="0 892.56 0 1018.85 36.46 955.71 0 892.56"/><path class="cls-3" d="M3,903.57l30.1,52.14L3,1007.85V903.57M0,892.56v126.29l36.46-63.14L0,892.56Z"/><polygon class="cls-25" points="162.78 531.79 43.79 531.79 0 607.64 0 662.04 43.79 737.88 162.78 737.88 222.27 634.84 162.78 531.79"/><path class="cls-3" d="M161.07,534.74l57.79,100.1L161.07,734.93H45.49L3,661.25V608.43l42.54-73.69H161.07m1.71-3h-119L0,607.64V662l43.79,75.84h119l59.49-103L162.78,531.79Z"/><polygon class="cls-26" points="162.78 745.75 43.79 745.75 0 821.6 0 875.99 43.79 951.84 162.78 951.84 222.27 848.79 162.78 745.75"/><path class="cls-3" d="M161.07,748.7l57.79,100.09-57.79,100.1H45.49L3,875.2V822.39L45.49,748.7H161.07m1.71-3h-119L0,821.6V876l43.79,75.85h119l59.49-103.05-59.49-103Z"/><polygon class="cls-27" points="348.59 638.71 229.6 638.71 170.11 741.75 229.6 844.8 348.59 844.8 408.08 741.75 348.59 638.71"/><path class="cls-3" d="M346.89,641.66l57.79,100.09-57.79,100.1H231.31l-57.79-100.1,57.79-100.09H346.89m1.7-2.95h-119l-59.49,103,59.49,103h119l59.49-103-59.49-103Z"/><polygon class="cls-28" points="348.59 852.66 229.6 852.66 170.11 955.71 229.6 1058.75 348.59 1058.75 408.08 955.71 348.59 852.66"/><path class="cls-3" d="M346.89,855.61l57.79,100.1L346.89,1055.8H231.31L173.52,955.71l57.79-100.1H346.89m1.7-3h-119L170.11,955.71l59.49,103h119l59.49-103L348.59,852.66Z"/><polygon class="cls-29" points="534.4 531.79 415.42 531.79 355.92 634.84 415.42 737.88 534.4 737.88 593.89 634.84 534.4 531.79"/><path class="cls-3" d="M532.7,534.74l57.79,100.1L532.7,734.93H417.12L359.33,634.84l57.79-100.1H532.7m1.7-3h-119L355.92,634.84l59.49,103h119l59.49-103L534.4,531.79Z"/><polygon class="cls-30" points="534.4 745.75 415.42 745.75 355.92 848.79 415.42 951.84 534.4 951.84 593.89 848.79 534.4 745.75"/><path class="cls-3" d="M532.7,748.7l57.79,100.09L532.7,948.89H417.12l-57.79-100.1L417.12,748.7H532.7m1.7-3h-119l-59.49,103,59.49,103.05h119l59.49-103.05-59.49-103Z"/><polygon class="cls-31" points="720.21 638.71 601.23 638.71 541.73 741.75 601.23 844.8 720.21 844.8 779.71 741.75 720.21 638.71"/><path class="cls-3" d="M718.51,641.66,776.3,741.75l-57.79,100.1H602.93l-57.79-100.1,57.79-100.09H718.51m1.7-2.95h-119l-59.5,103,59.5,103h119l59.5-103-59.5-103Z"/><polygon class="cls-32" points="1463.46 852.66 1344.48 852.66 1284.98 955.71 1344.48 1058.75 1463.46 1058.75 1522.95 955.71 1463.46 852.66"/><path class="cls-3" d="M1461.76,855.61l57.79,100.1-57.79,100.09H1346.18l-57.79-100.09,57.79-100.1h115.58m1.7-3h-119L1285,955.71l59.5,103h119l59.49-103-59.49-103.05Z"/><polygon class="cls-33" points="1649.27 531.79 1530.29 531.79 1470.8 634.84 1530.29 737.88 1649.27 737.88 1708.77 634.84 1649.27 531.79"/><path class="cls-3" d="M1647.57,534.74l57.79,100.1-57.79,100.09H1532L1474.2,634.84,1532,534.74h115.58m1.71-3h-119L1470.8,634.84l59.49,103h119l59.49-103-59.49-103.05Z"/><polygon class="cls-34" points="1649.27 745.75 1530.29 745.75 1470.8 848.79 1530.29 951.84 1649.27 951.84 1708.77 848.79 1649.27 745.75"/><path class="cls-3" d="M1647.57,748.7l57.79,100.09-57.79,100.1H1532l-57.79-100.1L1532,748.7h115.58m1.71-3h-119l-59.49,103,59.49,103.05h119l59.49-103.05-59.49-103Z"/><polygon class="cls-35" points="1873.03 704.43 1835.09 638.71 1716.1 638.71 1656.61 741.75 1716.1 844.8 1835.09 844.8 1873.03 779.08 1873.03 704.43"/><path class="cls-3" d="M1833.38,641.66l36.7,63.56v73.07l-36.7,63.56H1717.8L1660,741.75l57.79-100.09h115.58m1.71-2.95h-119l-59.49,103,59.49,103h119L1873,779.08V704.43l-37.94-65.72Z"/><polygon class="cls-36" points="1873.03 918.38 1835.09 852.66 1716.1 852.66 1656.61 955.71 1716.1 1058.75 1835.09 1058.75 1873.03 993.03 1873.03 918.38"/><path class="cls-3" d="M1833.38,855.61l36.7,63.57v73.06l-36.7,63.56H1717.8L1660,955.71l57.79-100.1h115.58m1.71-3h-119l-59.49,103.05,59.49,103h119L1873,993V918.39l-37.94-65.73Z"/><polygon class="cls-37" points="1873.03 581.82 1842.42 634.84 1873.03 687.86 1873.03 581.82"/><path class="cls-3" d="M1870.08,592.83v84l-24.25-42,24.25-42m3-11-30.61,53,30.61,53v-106Z"/><polygon class="cls-38" points="1873.03 795.77 1842.42 848.79 1873.03 901.81 1873.03 795.77"/><path class="cls-3" d="M1870.08,806.78v84l-24.25-42,24.25-42m3-11-30.61,53,30.61,53v-106Z"/><polygon class="cls-39" points="0 1107.25 0 1233.55 36.46 1170.4 0 1107.25"/><path class="cls-3" d="M3,1118.26l30.1,52.14L3,1222.54V1118.26m-2.95-11v126.3l36.46-63.15L0,1107.25Z"/><polygon class="cls-40" points="162.78 960.44 43.79 960.44 0 1036.29 0 1090.68 43.79 1166.53 162.78 1166.53 222.27 1063.48 162.78 960.44"/><path class="cls-3" d="M161.07,963.39l57.79,100.09-57.79,100.1H45.49L3,1089.89v-52.81l42.54-73.69H161.07m1.71-2.95h-119L0,1036.29v54.39l43.79,75.85h119l59.49-103-59.49-103Z"/><polygon class="cls-41" points="215.41 1265.56 162.78 1174.39 43.79 1174.39 0 1250.24 0 1265.56 215.41 1265.56"/><path class="cls-3" d="M161.07,1177.34l49.23,85.27H3V1251l42.54-73.69H161.07m1.71-2.95h-119L0,1250.24v15.32H215.41l-52.63-91.17Z"/><polygon class="cls-42" points="353.14 1265.56 408.08 1170.4 348.59 1067.36 229.6 1067.36 170.11 1170.4 225.05 1265.56 353.14 1265.56"/><path class="cls-3" d="M346.89,1070.3l57.79,100.1-53.24,92.21H226.75l-53.23-92.21,57.79-100.1H346.89m1.7-2.94h-119l-59.49,103,54.94,95.16H353.14l54.94-95.16-59.49-103Z"/><polygon class="cls-43" points="534.4 960.44 415.42 960.44 355.92 1063.48 415.42 1166.53 534.4 1166.53 593.89 1063.48 534.4 960.44"/><path class="cls-3" d="M532.7,963.39l57.79,100.09-57.79,100.1H417.12l-57.79-100.1,57.79-100.09H532.7m1.7-2.95h-119l-59.49,103,59.49,103h119l59.49-103-59.49-103Z"/><polygon class="cls-44" points="1096.39 1265.56 1151.33 1170.4 1091.84 1067.36 972.85 1067.36 913.36 1170.4 968.3 1265.56 1096.39 1265.56"/><path class="cls-3" d="M1090.14,1070.3l57.79,100.1-53.24,92.21H970l-53.24-92.21,57.8-100.1h115.58m1.7-2.94h-119l-59.49,103,54.94,95.16h128.09l54.94-95.16-59.49-103Z"/><polygon class="cls-45" points="1277.65 960.44 1158.66 960.44 1099.17 1063.48 1158.66 1166.53 1277.65 1166.53 1337.14 1063.48 1277.65 960.44"/><path class="cls-3" d="M1276,963.39l57.79,100.09L1276,1163.58H1160.37l-57.79-100.1,57.79-100.09H1276m1.7-2.95h-119l-59.49,103,59.49,103h119l59.49-103-59.49-103Z"/><polygon class="cls-46" points="1330.29 1265.56 1277.65 1174.39 1158.66 1174.39 1106.03 1265.56 1330.29 1265.56"/><path class="cls-3" d="M1276,1177.34l49.23,85.27h-214l49.23-85.27H1276m1.7-2.95h-119L1106,1265.56h224.26l-52.64-91.17Z"/><polygon class="cls-47" points="1468.01 1265.56 1522.95 1170.4 1463.46 1067.36 1344.48 1067.36 1284.98 1170.4 1339.92 1265.56 1468.01 1265.56"/><path class="cls-3" d="M1461.76,1070.3l57.79,100.1-53.24,92.21H1341.63l-53.24-92.21,57.79-100.1h115.58m1.7-2.94h-119l-59.5,103,54.94,95.16H1468L1523,1170.4l-59.49-103Z"/><polygon class="cls-48" points="1649.27 960.44 1530.29 960.44 1470.8 1063.48 1530.29 1166.53 1649.27 1166.53 1708.77 1063.48 1649.27 960.44"/><path class="cls-3" d="M1647.57,963.39l57.79,100.09-57.79,100.1H1532l-57.79-100.1L1532,963.39h115.58m1.71-2.95h-119l-59.49,103,59.49,103h119l59.49-103-59.49-103Z"/><polygon class="cls-49" points="1701.91 1265.56 1649.27 1174.39 1530.29 1174.39 1477.65 1265.56 1701.91 1265.56"/><path class="cls-3" d="M1647.57,1177.34l49.23,85.27h-214l49.23-85.27h115.58m1.71-2.95h-119l-52.64,91.17h224.26l-52.63-91.17Z"/><polygon class="cls-50" points="1873.03 1133.08 1835.09 1067.36 1716.1 1067.36 1656.61 1170.4 1711.55 1265.56 1839.64 1265.56 1873.03 1207.72 1873.03 1133.08"/><path class="cls-3" d="M1833.38,1070.3l36.7,63.57v73.06l-32.14,55.68H1713.25L1660,1170.4l57.79-100.1h115.58m1.71-2.94h-119l-59.49,103,54.94,95.16h128.09l33.39-57.84v-74.64l-37.94-65.72Z"/><polygon class="cls-51" points="1873.03 1010.47 1842.42 1063.48 1873.03 1116.5 1873.03 1010.47"/><path class="cls-3" d="M1870.08,1021.47v84l-24.25-42,24.25-42m3-11-30.61,53,30.61,53v-106Z"/><polygon class="cls-52" points="1873.03 1224.42 1849.28 1265.56 1873.03 1265.56 1873.03 1224.42"/><path class="cls-3" d="M1870.08,1235.43v27.18h-15.69l15.69-27.18m3-11-23.75,41.14H1873v-41.14Z"/></g></g></g></svg>