<svg xmlns="http://www.w3.org/2000/svg" viewBox="0 0 182.2 115.81"><defs><style>.cls-1{fill:#fff;stroke:#000;stroke-miterlimit:10;stroke-width:3.22px;}</style></defs><title>Recurso 23aaa</title><g id="Capa_2" data-name="Capa 2"><g id="Capa_3" data-name="Capa 3"><path class="cls-1" d="M10.08,10c8.28-6.35,20.61,1.64,41.58-3.64C70.62,4,71.9,7.65,83,6.38s13.34-5.11,25.73-4.75,10.38,2.56,22.05,2.19,29.36-4,39,2.12,16.32,15.93,4.28,30,1.19,11.09-1.91,26-26.51.88-26.51,23.7c0,16.17-4.6,28.55-19.26,26.55-9.25-1.25-20.39-4.2-32-.34-19.91,6.64-28.19-3.06-44.61-2.45-21.5.79-15.84-16-13.77-27.56,1.83-10.19-6-10.34-16.68-12C11.76,68.61,1,66.19,8.07,40.11,8.07,40.11-7.73,23.69,10.08,10Z"/><path d="M14.55,17H28.77V32.82H36.7L35.34,17H47.92s-1.92,16.69,0,25.71,0,14.5,0,14.5h-9.3L38.89,41l-11.21,1.1,2.46,15L19.2,61Z"/><path d="M71.9,14.4,54.21,15.68l-1.28,39.2h8.21l.55-7.47L68.62,45l.54,8.75,10.4-1.1ZM61.14,36.1V26.25h5.11l1.45,8.39Z"/><path d="M72.12,62.55l-17.73.25-3.54,39.07,8.19.47,1-7.43,7.06-2,0,8.77,10.44-.49Zm-12,21,.57-9.83,5.09.29,1,8.46Z"/><path d="M108.73,26.25C108.19,12.94,94,14.4,94,14.4H83V54.88H94.51l-1.09-15S109.28,39.56,108.73,26.25ZM92.5,33.73V22.24s8.94-.55,8.76,5.65S92.5,33.73,92.5,33.73Z"/><path d="M106.21,72.52C105.28,59.23,91.1,61.1,91.1,61.1l-10.93.32,1.18,40.47,11.48-.34L91.3,86.64S107.15,85.81,106.21,72.52Zm-16,8L89.87,69s8.92-.8,8.92,5.4S90.21,80.47,90.21,80.47Z"/><path d="M138.28,25.37c-.55-13.31-14.78-11.85-14.78-11.85H112.56V54h11.49L123,39S138.82,38.68,138.28,25.37Zm-16.23,7.47V21.36S131,20.81,130.8,27,122.05,32.84,122.05,32.84Z"/><path d="M135.75,73.57c.44-13.31-13.85-12.91-13.85-12.91L111,59.86l-3,40.37,11.45.85,0-15S135.32,86.89,135.75,73.57ZM119,79.83l.84-11.45s9,.11,8.31,6.28S119,79.83,119,79.83Z"/><path d="M138.29,13.47,150,14.4s-.73,10.58,2.91,10.76S158,14.4,158,14.4l14.22,4L158.52,33.73l-3.28,24.62s-15.87-2.92-14.59-3.47,5.83-20.24,5.83-20.24Z"/></g></g></svg>